<svg width="1248" height="260" viewBox="0 0 1248 260" fill="none" xmlns="http://www.w3.org/2000/svg">
<g clip-path="url(#clip0_54_34)">
<path d="M228.127 203.578L228.055 204.313C227.778 207.109 227.525 209.723 227.272 212.157C226.61 218.446 225.936 223.53 225.058 227.663C224.396 230.723 223.626 233.265 222.651 235.386C221.423 238.084 219.859 240.096 217.801 241.651C199.724 255.265 161.873 236.747 144.374 225.048C136.214 219.59 129.98 214.06 124.961 209.627C117.162 202.723 112.914 199.193 109.135 200.651C103.575 202.819 99.8799 214.687 101.685 224.615C102.804 230.747 105.753 234.205 108.124 236.976C110.351 239.566 112.445 242.024 111.506 245.422C110.603 248.687 107.209 251.193 101.42 252.868C96.1972 254.362 89.301 255.157 81.5504 255.157C58.9002 255.157 28.9205 248.386 11.8306 232.723C6.63136 227.952 3.09301 222.795 1.29977 217.374C-0.469399 212.024 -1.98583 200.096 7.84691 180.47C14.6949 166.819 22.59 158.229 27.8253 152.542C28.391 151.916 28.9325 151.325 29.438 150.771C51.7994 126.121 64.9057 93.6025 64.0993 82.0362C63.979 80.3495 63.5698 79.4459 63.2328 79.1567C61.0785 77.3615 50.6681 84.2652 44.4459 88.3977C33.4337 95.6989 23.0353 102.59 17.3667 97.9519C14.0932 95.2772 13.6238 89.6025 15.9827 81.0844C17.7158 74.7953 21.0134 67.0242 24.8165 60.3133C43.4831 27.3254 82.2123 3.96394 108.858 0.43382C118.583 -0.855336 125.936 0.710929 130.136 4.97599C141.317 16.3013 129.029 45.8796 120.713 62.4941C114.707 74.47 108.979 81.0603 102.925 88.0483C96.1972 95.8073 89.2288 103.843 81.2495 120.349C72.7286 137.964 70.839 149.217 70.129 157.06C69.8401 160.313 69.7318 163.59 69.792 166.868C73.0896 155.952 79.8293 147.325 88.964 143.277C104.863 136.229 121.977 145.759 126.839 148.843C134.71 153.831 138.152 159.362 141.185 164.253C144.157 169.06 146.974 173.59 153.81 177.482C165.363 184.048 181.731 184.928 185.667 179.205C189.229 173.976 182.983 162.759 180.636 158.53C175.87 150.012 170.647 145.964 166.459 142.723C162.415 139.59 158.925 136.88 157.685 131.723C154.965 120.458 164.81 106.868 174.065 98.6507C182.983 90.735 196.125 83.6145 206.259 87.3977C211.53 89.3736 214.659 94.1808 217.403 102.06C218.366 104.856 219.293 108.024 220.244 111.603C221.134 114.94 222.049 118.627 223.048 122.675C223.854 125.916 224.54 128.976 225.154 132.048C229.679 154.494 230.642 177.892 228.127 203.578Z" fill="black"/>
<path d="M501.735 135.205C501.398 132.518 493.154 69.0241 445.771 47.9397C439.441 45.1205 426.274 39.265 410.544 42.3976C375.293 49.4337 359.9 95.4458 354.917 114.904C354.833 115.229 354.737 115.59 354.653 115.976C360.478 117.253 365.653 119.626 370.142 123.084C370.527 123.373 370.948 123.711 371.394 124.12C387.388 137.554 387.725 160.241 387.846 168.795C387.99 179.759 385.92 190.747 381.684 201.482C379.204 207.783 376.063 213.783 372.368 219.398C373.728 221.012 382.887 231.711 396.198 240.879C409.954 250.361 423.301 255.132 436.023 255.132C439.693 255.132 443.316 254.735 446.878 253.94C466.315 249.602 482.539 233.012 492.576 207.229C499.159 190.325 502.697 170.482 502.697 151.675C502.697 146.06 502.385 140.53 501.735 135.205ZM469.914 202.892C467.073 205.313 446.963 174.699 426.226 177.867C406.56 180.855 396.138 212.723 394.056 211.651C392.275 210.723 406.909 190.651 407.295 166.12C407.836 131.867 380.36 104.313 382.394 102.867C384.428 101.41 403.01 135.759 421.797 133.602C440.223 131.482 449.779 95.3494 453.088 96.6265C456.061 97.7831 441.113 124.289 446.505 154.132C451.572 182.229 472.381 200.783 469.914 202.892Z" fill="black"/>
<path d="M501.735 135.205C501.398 132.518 493.154 69.0241 445.771 47.9397C439.441 45.1205 426.274 39.265 410.544 42.3976C375.293 49.4337 359.9 95.4458 354.917 114.904C354.833 115.229 354.737 115.59 354.653 115.976C360.478 117.253 365.653 119.626 370.142 123.084C370.527 123.373 370.948 123.711 371.394 124.12C387.388 137.554 387.725 160.241 387.846 168.795C387.99 179.759 385.92 190.747 381.684 201.482C379.204 207.783 376.063 213.783 372.368 219.398C373.728 221.012 382.887 231.711 396.198 240.879C409.954 250.361 423.301 255.132 436.023 255.132C439.693 255.132 443.316 254.735 446.878 253.94C466.315 249.602 482.539 233.012 492.576 207.229C499.159 190.325 502.697 170.482 502.697 151.675C502.697 146.06 502.385 140.53 501.735 135.205ZM469.914 202.892C467.073 205.313 446.963 174.699 426.226 177.867C406.56 180.855 396.138 212.723 394.056 211.651C392.275 210.723 406.909 190.651 407.295 166.12C407.836 131.867 380.36 104.313 382.394 102.867C384.428 101.41 403.01 135.759 421.797 133.602C440.223 131.482 449.779 95.3494 453.088 96.6265C456.061 97.7831 441.113 124.289 446.505 154.132C451.572 182.229 472.381 200.783 469.914 202.892Z" fill="black"/>
<path d="M366.652 129.566C366.351 129.289 366.05 129.048 365.737 128.807C362.102 126.012 357.83 124.072 353.004 123.024C350.729 122.518 348.322 122.217 345.819 122.12C341.318 121.928 336.468 122.373 331.328 123.47C320.076 125.867 307.499 131.325 295.921 138.843C284.115 146.518 270.948 158.12 272.729 165.53C273.138 167.241 274.306 168.59 275.437 169.904C277.002 171.711 278.482 173.422 278.542 176.133C278.542 177.578 278.109 180.602 276.424 181.747C273.62 183.663 266.88 180.819 262.957 177.096C257.637 172.06 255.013 162.398 256.289 152.482C257.3 144.566 260.622 138.181 264.942 135.795C266.88 134.735 268.24 134.843 271.237 135.084C272.813 135.217 274.775 135.373 277.266 135.373C277.459 135.349 300.434 135.446 316.417 121.181C317.271 120.41 337.37 102.277 332.58 77.0482C331.377 70.7952 327.2 55.5542 314.311 49.3494C291.6 38.3976 262.09 63.7952 250.982 73.3614C244.362 79.0482 234.313 88.9638 225.299 103.036C226.887 108.181 228.368 114.145 230.052 120.928C230.883 124.289 231.593 127.458 232.231 130.626C236.9 153.783 237.911 177.88 235.312 204.289L235.216 205.253C234.951 207.988 234.698 210.53 234.457 212.904C233.615 220.855 232.748 227.602 231.136 233.205C240.318 240.795 251.499 246.807 263.823 250.626C273.56 253.639 283.428 255.133 293.105 255.133C306.055 255.133 318.643 252.446 330.053 247.108C343.159 240.976 354.653 231.41 363.39 219.639C364.919 217.59 366.351 215.47 367.699 213.277C370.539 208.711 372.982 203.867 374.968 198.819C378.855 188.976 380.757 178.904 380.625 168.904C380.516 161.229 380.215 140.855 366.652 129.566ZM275.233 100.048L275.269 100C278.073 95.4458 282.261 91.6385 287.4 89C292.599 86.241 294.453 86.2891 294.862 86.3494C295.488 87.9397 293.261 94.9518 287.869 100.361C281.948 106.313 273.572 108.602 271.863 107.735C271.754 107.169 271.983 105.373 275.233 100.048Z" fill="black"/>
<path d="M539.152 255.157V6.28918H629.957C646.073 6.28918 659.359 8.13256 669.842 11.8193C680.313 15.5061 688.605 20.5783 694.707 27.0241C700.809 33.482 705.069 40.9157 707.488 49.3133C709.907 57.7229 711.111 66.5422 711.111 75.7591C711.111 89.5904 708.294 100.988 702.65 109.976C697.005 118.964 689.7 126.048 680.722 131.229C671.744 136.41 661.562 140.048 650.164 142.12C638.767 144.193 627.322 145.229 615.816 145.229H562.645V255.145H539.164L539.152 255.157ZM616.49 125.193C627.538 125.193 637.431 124.506 646.181 123.121C654.93 121.735 662.344 119.145 668.446 115.337C674.548 111.53 679.266 106.349 682.599 99.7831C685.933 93.2169 687.606 84.6386 687.606 74.0362C687.606 58.3735 682.479 46.5061 672.237 38.4338C661.995 30.3735 645.699 26.3374 623.386 26.3374H562.621V125.193H616.478H616.49Z" fill="#231F20"/>
<path d="M706.609 255.157V6.28918H727.322V101C735.614 92.241 744.183 85.0964 753.041 79.5663C761.899 74.0362 772.55 71.2651 784.983 71.2651C796.031 71.2651 806.273 73.1687 815.708 76.9639C825.144 80.7711 833.087 87.3976 839.526 96.8434C843.895 103.301 846.482 109.928 847.301 116.723C848.107 123.518 848.504 130.614 848.504 137.976V255.157H827.792V138.325C827.792 122.193 824.217 110.096 817.092 102.036C809.956 93.9759 798.101 89.9398 781.528 89.9398C775.078 89.9398 769.216 90.9277 763.921 92.8795C758.625 94.8434 753.848 97.4338 749.587 100.663C745.327 103.892 741.704 107.578 738.707 111.723C735.711 115.867 733.412 120.253 731.799 124.855C729.729 130.614 728.465 136.145 727.996 141.446C727.527 146.747 727.31 152.506 727.31 158.723V255.157H706.597H706.609Z" fill="#231F20"/>
<path d="M939.322 150.771C943.233 150.313 947.891 149.614 953.307 148.699C958.71 147.783 963.151 146.506 966.606 144.892C970.06 143.277 972.178 140.566 972.996 136.771C973.803 132.964 974.2 129.458 974.2 126.229C974.2 115.639 970.806 106.928 964.018 100.133C957.23 93.3374 945.773 89.9398 929.67 89.9398C922.533 89.9398 915.973 90.5783 909.992 91.8434C903.998 93.1084 898.775 95.3012 894.286 98.4097C889.797 101.518 886.114 105.663 883.238 110.855C880.361 116.036 878.46 122.554 877.545 130.386H856.484C857.17 119.795 859.589 110.747 863.729 103.253C867.869 95.7711 873.225 89.6627 879.784 84.9277C886.343 80.2048 893.937 76.747 902.566 74.5542C911.196 72.3615 920.354 71.2651 930.019 71.2651C938.997 71.2651 947.458 72.253 955.401 74.2048C963.344 76.1687 970.252 79.2771 976.113 83.5422C981.986 87.8072 986.584 93.5181 989.93 100.651C993.263 107.795 994.936 116.554 994.936 126.916V224.386C994.936 232.458 996.369 237.578 999.257 239.771C1002.13 241.964 1007.95 241.446 1016.7 238.217V254.458C1015.08 254.916 1012.72 255.602 1009.62 256.53C1006.51 257.446 1003.46 257.916 1000.47 257.916C997.247 257.916 994.142 257.566 991.145 256.88C987.691 256.41 984.935 255.325 982.853 253.59C980.771 251.855 979.11 249.783 977.846 247.374C976.583 244.952 975.716 242.313 975.259 239.422C974.789 236.542 974.573 233.494 974.573 230.265C965.823 239.94 955.81 247.325 944.533 252.386C933.256 257.458 921.052 259.988 907.934 259.988C900.111 259.988 892.565 258.952 885.32 256.88C878.075 254.807 871.684 251.578 866.16 247.205C860.636 242.831 856.255 237.47 853.042 231.133C849.816 224.795 848.203 217.253 848.203 208.494C848.203 178.072 869.036 160.108 910.702 154.578L939.358 150.771H939.322ZM974.2 161.145C965.45 164.831 956.592 167.253 947.614 168.398C938.636 169.554 929.657 170.47 920.679 171.169C904.793 172.325 892.421 175.892 883.563 181.88C874.705 187.88 870.276 196.976 870.276 209.181C870.276 214.711 871.371 219.494 873.562 223.53C875.752 227.566 878.628 230.904 882.191 233.554C885.753 236.205 889.905 238.169 894.623 239.434C899.341 240.699 904.119 241.337 908.957 241.337C917.249 241.337 925.301 240.301 933.124 238.229C940.947 236.157 947.915 232.988 954.017 228.723C960.119 224.458 965.005 219.048 968.688 212.482C972.37 205.916 974.212 198.133 974.212 189.145V161.145H974.2Z" fill="#231F20"/>
<path d="M1025.64 255.157H1004.93V76.1084H1025.64V103.072H1026.32C1031.62 92.6988 1039.21 84.8072 1049.11 79.3976C1059 73.9879 1069.82 71.2771 1081.57 71.2771C1089.86 71.2771 1096.87 72.2048 1102.63 74.0482C1108.38 75.8916 1113.27 78.3735 1117.3 81.4819C1121.32 84.5904 1124.66 88.2169 1127.31 92.3735C1129.96 96.5181 1132.2 101.012 1134.04 105.855C1140.02 94.1084 1148.02 85.4096 1158.04 79.759C1168.05 74.1205 1179.5 71.2891 1192.39 71.2891C1204.59 71.2891 1214.31 73.3132 1221.56 77.3373C1228.82 81.3735 1234.39 86.6747 1238.3 93.241C1242.21 99.8072 1244.8 107.361 1246.07 115.88C1247.34 124.41 1247.98 133.157 1247.98 142.145V255.169H1227.26V131.422C1227.26 118.518 1224.56 108.386 1219.15 101C1213.74 93.6265 1203.66 89.9398 1188.94 89.9398C1181.35 89.9398 1174.04 91.6144 1167.02 94.9518C1159.99 98.2891 1153.84 103.422 1148.54 110.337C1146.24 113.337 1144.34 116.855 1142.85 120.88C1141.34 124.916 1140.14 129.12 1139.23 133.494C1138.3 137.88 1137.67 142.253 1137.32 146.626C1136.98 151 1136.81 155.036 1136.81 158.723V255.157H1116.09V131.41C1116.09 118.506 1113.39 108.373 1107.98 100.988C1102.57 93.6145 1092.49 89.9277 1077.77 89.9277C1070.18 89.9277 1062.86 91.6024 1055.85 94.9398C1048.82 98.2771 1042.67 103.41 1037.37 110.325C1035.07 113.325 1033.17 116.843 1031.68 120.867C1030.18 124.904 1028.97 129.108 1028.06 133.482C1027.13 137.867 1026.5 142.241 1026.16 146.614C1025.81 150.988 1025.64 155.024 1025.64 158.711V255.145V255.157Z" fill="#231F20"/>
</g>
<defs>
<clipPath id="clip0_54_34">
<rect width="1248" height="260" fill="white"/>
</clipPath>
</defs>
</svg>
